<?xml version="1.0" encoding="UTF-8"?>
<svg viewBox="0 0 354.33841 354.3349" xmlns="http://www.w3.org/2000/svg">
 <defs>
  <linearGradient id="a" x1="-390.28" x2="-250.68" y1="-45.05" y2="450" gradientUnits="userSpaceOnUse">
   <stop stop-color="#fff" offset="0"/>
   <stop stop-color="#fff" stop-opacity="0" offset="1"/>
  </linearGradient>
 </defs>
 <g transform="translate(531.5 -166.53)">
  <path d="m-494.96 166.54h283.46c25.015 0.05784 34.424 13.205 34.326 34.325v282.36c-0.0804 32.108-17.092 37.658-37.647 37.648h-283.46c-22.05-0.05804-33.071-11.554-33.219-34.326v-284.57c0.26515-21.526 9.9601-35.364 36.54-35.433z" fill="#f60"/>
  <path d="m-496.06 201.97v56.703c125.17-1e-5 226.73 101.6 226.76 226.76h56.703c-0.02718-156.46-127-283.46-283.46-283.46zm0 85.054v56.703c78.24 0 141.71 63.467 141.71 141.71h56.703c0-109.54-88.874-198.41-198.41-198.41zm70.866 162.98c0 19.559-15.874 35.433-35.433 35.433s-35.433-15.874-35.433-35.433 15.874-35.433 35.433-35.433 35.433 15.874 35.433 35.433z" fill="#e6e6e6"/>
  <path d="m-494.95 166.53c-26.58 0.06917-36.266 13.911-36.531 35.438v248.03c143.49 51.627 179.08-247.15 354.31-141.72v-107.41c0.00307-0.66002 0.01569-1.3245 0-1.9688-0.48625-19.973-10.079-32.319-34.312-32.375h-283.47z" fill="url(#a)" opacity=".7"/>
 </g>
</svg>
