<svg version="1.1" id="Layer_1" xmlns="http://www.w3.org/2000/svg" xmlns:xlink="http://www.w3.org/1999/xlink" x="0px" y="0px"
	 width="100%" viewBox="0 0 300 102" enable-background="new 0 0 300 102" xml:space="preserve">
<path fill="#000000" opacity="1.000000" stroke="none" 
	d="
M58.000000,103.000000 
	C39.090809,103.000000 20.181618,103.000000 1.000000,103.000000 
	C1.000000,91.647224 1.000000,80.292267 1.464419,68.458603 
	C5.986342,67.916397 10.043845,67.852913 14.560633,67.842842 
	C21.358856,67.872772 27.697796,67.849297 34.476208,67.874573 
	C38.596439,67.973534 42.277195,68.023735 45.978432,68.045372 
	C45.998913,68.016808 45.934864,68.045723 46.018143,68.283661 
	C46.427395,68.359245 46.753372,68.196892 47.539986,68.012321 
	C51.815651,67.993622 55.637016,68.114510 59.440754,67.909042 
	C60.276886,67.863876 61.050373,66.659073 61.919983,65.545540 
	C62.029392,62.416031 62.071522,59.729259 62.425732,56.860989 
	C64.171783,53.667645 65.605751,50.655804 67.273033,47.153934 
	C58.153206,47.153934 49.581921,47.153934 40.673939,47.081100 
	C39.882404,47.052753 39.427570,47.097244 38.719315,47.119560 
	C38.361954,47.385704 38.258015,47.674019 38.083549,48.315659 
	C37.630413,49.766323 37.247810,50.863659 36.541725,52.177429 
	C35.828857,54.790249 35.439472,57.186630 35.076302,59.421688 
	C38.100273,59.981972 40.524036,60.431053 42.534920,60.921082 
	C39.749783,61.356140 37.377525,61.750252 34.572094,62.073067 
	C27.776726,62.703934 21.414534,63.406094 14.669995,64.218369 
	C9.858433,65.218987 5.429217,66.109497 1.000001,67.000000 
	C1.000000,45.053894 1.000000,23.107792 1.000000,1.000000 
	C38.354073,1.000000 75.708374,1.000000 113.820953,1.350681 
	C114.076675,2.104536 113.631088,2.734894 113.063164,2.877285 
	C102.089912,5.628531 91.062180,8.171662 80.131157,11.079068 
	C72.206917,13.186737 64.406929,15.761515 56.253136,18.045147 
	C52.975971,17.371674 49.997200,16.781050 46.560646,16.112181 
	C42.060017,16.033936 38.017162,16.033936 33.974312,16.033936 
	C33.680695,16.502962 33.387081,16.971989 33.093464,17.441017 
	C35.449368,19.299704 37.805271,21.158390 39.969505,23.336555 
	C39.171440,25.063993 38.565041,26.471954 37.604858,28.105106 
	C37.126713,30.869028 37.002357,33.407761 36.510460,35.979111 
	C31.163408,36.696831 26.183903,37.381939 20.802067,37.982315 
	C14.677746,39.351246 8.955754,40.804905 3.233763,42.258564 
	C3.181132,42.442875 3.128500,42.627182 3.075869,42.811493 
	C5.026872,42.931301 6.977881,43.050995 8.928875,43.170948 
	C13.004260,43.421513 17.079636,43.672218 21.499306,43.913353 
	C22.899178,43.545105 23.954760,43.186371 25.474133,42.894398 
	C40.561146,42.975788 55.184372,42.997776 69.807587,42.992542 
	C71.125488,42.992069 72.695374,43.248638 73.720551,42.651543 
	C80.717010,38.576584 87.778015,39.547199 94.929840,42.043289 
	C94.935318,42.088093 95.025253,42.080341 95.099884,42.308735 
	C95.371162,42.811657 95.634750,42.983566 96.083542,43.375381 
	C97.857964,46.462448 99.514137,49.226986 101.098175,52.385536 
	C101.073364,55.184261 101.120689,57.588978 101.087151,60.370224 
	C100.296707,63.149864 99.587128,65.552971 98.572937,68.111816 
	C96.795921,70.494003 95.323524,72.720451 93.541359,75.086624 
	C90.802521,76.778831 88.373451,78.331314 85.522591,79.933907 
	C81.411713,80.373627 77.722626,80.763245 73.692780,80.979736 
	C70.817200,79.599663 67.318611,79.057007 65.938278,77.054337 
	C62.547108,72.134277 58.225674,71.376648 52.584911,72.094460 
	C50.444298,72.075188 48.727955,72.126442 46.571602,72.105850 
	C43.756851,72.076790 41.382103,72.119560 38.631279,72.094421 
	C37.494980,72.070374 36.734753,72.114235 35.733959,72.149681 
	C35.145458,72.319786 35.037605,72.593048 35.106030,73.384430 
	C34.685776,81.996552 38.528690,88.558113 43.841255,94.119400 
	C46.121517,96.506447 49.876873,97.484360 53.159889,99.405121 
	C54.905163,100.805168 56.452579,101.902580 58.000000,103.000000 
z"/>
<path fill="#000000" opacity="1.000000" stroke="none" 
	d="
M238.000000,103.000000 
	C189.312439,103.000000 140.624878,103.000000 91.141487,102.709122 
	C91.567253,101.889244 92.788849,101.360237 94.309364,100.847672 
	C98.772018,98.591103 102.935753,96.318108 107.445679,94.018723 
	C110.213776,91.712570 112.635696,89.432823 115.367195,87.002663 
	C117.799652,83.605240 119.922531,80.358223 122.365303,76.933044 
	C124.068161,72.834320 125.451134,68.913773 126.904572,64.578568 
	C127.261826,61.106987 127.548607,58.050064 127.902191,54.536743 
	C127.345222,49.038387 126.721443,43.996426 126.055115,38.591988 
	C125.022865,36.453747 124.033150,34.677979 123.003448,32.553902 
	C121.013672,30.122046 119.063881,28.038496 116.963959,25.632040 
	C113.556854,23.835297 110.299889,22.361460 106.855209,20.564640 
	C104.057610,19.171492 101.447723,18.101326 99.002991,16.692524 
	C109.820572,10.833931 121.513237,9.805208 133.138336,8.476583 
	C137.762634,7.948079 142.382736,7.382816 147.465729,6.902198 
	C158.604843,8.019938 169.282974,9.069769 180.155396,10.442480 
	C185.277023,12.619186 190.204391,14.473011 195.393631,16.603771 
	C201.201050,19.853527 206.722397,22.873087 212.310654,25.763290 
	C213.564331,26.411688 215.033722,26.868385 216.435242,26.967041 
	C222.943390,27.425173 229.462570,27.726339 235.856079,28.404665 
	C220.444885,38.247700 213.623337,52.195538 214.091599,70.436920 
	C212.347107,83.012901 222.352859,98.501366 236.661972,101.083107 
	C237.205566,101.181190 237.558319,102.337051 238.000000,103.000000 
M180.445648,82.093437 
	C180.615967,82.432472 180.786301,82.771515 181.023758,83.562096 
	C181.023758,83.562096 181.169785,83.994606 181.021057,84.819733 
	C180.026520,90.052620 179.031998,95.285515 178.014984,100.636681 
	C187.130920,100.636681 196.001678,100.636681 204.715302,100.636681 
	C205.209152,96.518089 205.657700,92.777336 206.785248,88.588638 
	C207.466812,84.056892 208.148376,79.525146 208.974091,74.172028 
	C209.592255,70.113556 210.210434,66.055084 210.989548,61.200558 
	C211.343704,58.821541 211.697861,56.442524 212.003052,54.009026 
	C212.003052,54.009026 212.050812,54.057602 212.522675,53.899502 
	C212.881912,53.695671 212.968765,53.409283 212.945847,52.130157 
	C212.897156,48.746304 212.848465,45.362453 212.927689,41.231144 
	C211.633942,38.455135 210.340179,35.679127 208.980881,32.206497 
	C208.770355,31.775877 208.633179,31.285635 208.338638,30.923332 
	C200.761703,21.603558 184.257965,20.135733 172.208344,25.362221 
	C169.123291,26.700340 165.956039,27.848915 162.968796,28.197863 
	C162.968796,26.928558 162.968796,25.659254 162.968796,24.198305 
	C154.169724,24.198305 145.787827,24.198305 137.479935,24.198305 
	C137.025070,26.602547 136.608505,28.804350 136.028656,31.776520 
	C135.745285,33.518738 135.461914,35.260956 135.027267,37.779385 
	C135.000473,38.832256 134.973694,39.885124 134.995865,40.988304 
	C134.995865,40.988304 134.938248,40.950066 134.420776,41.135956 
	C134.266693,41.769436 134.112625,42.402916 134.008316,43.783756 
	C134.062469,44.528065 134.116608,45.272377 133.822403,46.707603 
	C133.528946,48.441982 133.235504,50.176361 132.244583,52.351940 
	C131.814743,56.530590 131.384888,60.709236 130.319656,65.178955 
	C129.602386,70.116943 128.885101,75.054924 127.997215,80.785271 
	C126.632507,87.376755 125.267792,93.968239 123.813293,100.993423 
	C132.214249,100.993423 139.988403,101.083054 147.755585,100.890747 
	C148.842361,100.863838 150.632538,99.605255 150.828384,98.655266 
	C151.480576,95.491615 151.554916,92.208824 152.008240,88.181160 
	C152.949646,82.451836 153.891052,76.722504 155.173172,70.268837 
	C156.051804,66.177139 156.930435,62.085434 157.969284,57.253010 
	C159.017593,54.849556 160.065887,52.446098 161.754471,49.759415 
	C171.573792,41.829262 180.555588,44.115028 185.031372,51.785034 
	C185.076309,54.522408 185.121262,57.259785 185.020294,60.688946 
	C184.665009,63.425007 184.309708,66.161064 183.262268,69.342133 
	C182.825424,73.191429 182.388580,77.040726 181.452408,81.079529 
	C181.270889,81.375954 181.089371,81.672379 180.975342,81.983322 
	C180.975342,81.983322 180.941025,81.923431 180.445648,82.093437 
z"/>
<path fill="#0197FB" opacity="1.000000" stroke="none" 
	d="
M214.166214,69.992401 
	C213.623337,52.195538 220.444885,38.247700 236.093353,28.187340 
	C237.335861,27.083656 238.219360,26.518272 239.540833,25.975491 
	C242.322113,26.056902 244.665421,26.115713 247.285156,26.344316 
	C248.405960,26.659683 249.250336,26.805260 250.532715,26.973980 
	C262.694672,29.209602 274.474426,31.168882 286.120850,33.733479 
	C292.670837,35.175812 298.759705,37.877159 299.643005,45.969017 
	C299.649445,46.028015 300.528442,45.991772 301.000000,46.000000 
	C301.000000,53.354252 301.000000,60.708508 300.579681,68.291229 
	C298.365540,68.678940 296.572235,68.970345 294.777863,68.977005 
	C276.533051,69.044708 258.288055,69.066002 239.868866,69.052719 
	C239.738541,69.667168 239.782486,70.329201 239.886581,71.241692 
	C239.909073,71.659683 239.871384,71.827225 239.415253,71.992889 
	C237.531952,71.796417 236.072525,71.527946 234.601303,71.419891 
	C227.791397,70.919678 220.978226,70.464012 214.166214,69.992401 
M263.029236,40.002506 
	C253.174683,40.421642 244.119461,46.232372 243.259979,52.993050 
	C253.439240,52.993050 263.582275,53.090420 273.717377,52.851017 
	C274.798767,52.825478 276.910095,50.166527 276.719330,49.858307 
	C275.241577,47.470730 273.635193,44.933342 271.436279,43.286854 
	C269.289612,41.679489 266.395905,41.069828 263.029236,40.002506 
z"/>
<path fill="#000000" opacity="1.000000" stroke="none" 
	d="
M301.000000,45.531342 
	C300.528442,45.991772 299.649445,46.028015 299.643005,45.969017 
	C298.759705,37.877159 292.670837,35.175812 286.120850,33.733479 
	C274.474426,31.168882 262.694672,29.209602 250.367584,26.662273 
	C248.845886,26.276457 247.927322,26.225491 247.008743,26.174526 
	C244.665421,26.115713 242.322113,26.056902 239.314575,25.618851 
	C235.431305,24.829771 231.922714,25.100929 229.048904,23.879078 
	C221.240051,20.558996 213.700012,16.606670 205.878586,12.582882 
	C198.818359,9.804564 191.932938,7.348323 184.861526,4.565043 
	C183.189407,3.813571 181.641800,3.526027 180.246552,2.899328 
	C179.664154,2.637743 179.405731,1.654896 179.000000,0.999997 
	C219.559860,1.000000 260.119720,1.000000 301.000000,1.000000 
	C301.000000,15.686007 301.000000,30.374346 301.000000,45.531342 
z"/>
<path fill="#0292F2" opacity="1.000000" stroke="none" 
	d="
M214.091599,70.436920 
	C220.978226,70.464012 227.791397,70.919678 234.601303,71.419891 
	C236.072525,71.527946 237.531952,71.796417 239.576385,72.325623 
	C241.505447,74.760704 242.370941,77.647278 244.287247,78.827156 
	C253.149323,84.283524 262.492157,83.581909 271.714233,79.625938 
	C274.660950,78.361893 277.344940,76.485374 279.957855,74.997986 
	C284.618530,78.820702 289.190033,82.312309 293.371613,86.221039 
	C294.192444,86.988335 294.161987,90.334969 293.407593,90.847023 
	C288.636719,94.085342 283.578094,96.907303 278.557312,99.766342 
	C276.443268,100.970154 274.189972,101.929504 272.000000,103.000000 
	C260.979095,103.000000 249.958206,103.000000 238.468658,103.000000 
	C237.558319,102.337051 237.205566,101.181190 236.661972,101.083107 
	C222.352859,98.501366 212.347107,83.012901 214.091599,70.436920 
z"/>
<path fill="#000000" opacity="1.000000" stroke="none" 
	d="
M272.468658,103.000000 
	C274.189972,101.929504 276.443268,100.970154 278.557312,99.766342 
	C283.578094,96.907303 288.636719,94.085342 293.407593,90.847023 
	C294.161987,90.334969 294.192444,86.988335 293.371613,86.221039 
	C289.190033,82.312309 284.618530,78.820702 279.957855,74.997986 
	C277.344940,76.485374 274.660950,78.361893 271.714233,79.625938 
	C262.492157,83.581909 253.149323,84.283524 244.287247,78.827156 
	C242.370941,77.647278 241.505447,74.760704 239.994812,72.327507 
	C239.871384,71.827225 239.909073,71.659683 239.959824,70.931870 
	C239.996307,69.947830 240.019714,69.524071 240.043137,69.100296 
	C258.288055,69.066002 276.533051,69.044708 294.777863,68.977005 
	C296.572235,68.970345 298.365540,68.678940 300.579681,68.759850 
	C301.000000,80.254036 301.000000,91.508064 301.000000,103.000000 
	C291.647125,103.000000 282.292206,103.000000 272.468658,103.000000 
z"/>
<path fill="#038BE6" opacity="1.000000" stroke="none" 
	d="
M147.004745,6.834290 
	C142.382736,7.382816 137.762634,7.948079 133.138336,8.476583 
	C121.513237,9.805208 109.820572,10.833931 98.727104,16.884701 
	C94.689964,18.980049 91.207291,20.922716 87.477493,22.041542 
	C73.696007,26.175564 59.832855,30.037340 45.667381,34.001915 
	C44.890324,34.003216 44.446293,34.004059 43.723694,34.066330 
	C42.963322,34.419170 42.481514,34.710587 41.653000,35.020836 
	C40.201679,35.357021 39.097069,35.674374 38.083481,35.652527 
	C40.991417,33.752113 43.670589,31.833195 46.647285,30.686895 
	C68.353424,22.328039 90.145088,14.190491 111.817932,5.747379 
	C113.563515,5.067353 114.622147,2.623966 116.000000,1.000001 
	C129.020889,1.000000 142.041794,1.000000 155.411682,1.327353 
	C152.842026,3.381234 149.923386,5.107762 147.004745,6.834290 
z"/>
<path fill="#0487DF" opacity="1.000000" stroke="none" 
	d="
M115.666672,1.000001 
	C114.622147,2.623966 113.563515,5.067353 111.817932,5.747379 
	C90.145088,14.190491 68.353424,22.328039 46.647285,30.686895 
	C43.670589,31.833195 40.991417,33.752113 37.804802,35.643944 
	C37.249401,35.965206 37.063702,35.955853 36.878002,35.946495 
	C37.002357,33.407761 37.126713,30.869028 37.722973,28.412525 
	C38.532738,28.830778 39.058079,29.518215 39.181534,29.452353 
	C44.965015,26.366846 50.725952,23.237745 56.431213,20.010654 
	C56.730522,19.841352 56.523064,18.776127 56.551529,18.127998 
	C64.406929,15.761515 72.206917,13.186737 80.131157,11.079068 
	C91.062180,8.171662 102.089912,5.628531 113.063164,2.877285 
	C113.631088,2.734894 114.076675,2.104536 114.289612,1.350681 
	C114.444443,1.000000 114.888893,1.000000 115.666672,1.000001 
z"/>
<path fill="#057CCC" opacity="1.000000" stroke="none" 
	d="
M94.010452,100.831238 
	C92.788849,101.360237 91.567253,101.889244 90.672829,102.709122 
	C87.638710,103.000000 84.277428,103.000000 80.432816,102.640625 
	C78.801384,100.522514 77.899788,98.524147 76.462959,97.046082 
	C69.867912,90.261734 63.086143,83.659203 56.463024,76.901596 
	C55.109673,75.520767 54.150208,73.753906 53.009178,72.164986 
	C58.225674,71.376648 62.547108,72.134277 65.938278,77.054337 
	C67.318611,79.057007 70.817200,79.599663 73.874619,81.247940 
	C79.398598,85.881386 84.530136,89.931404 89.337326,94.335464 
	C91.262718,96.099388 92.474083,98.642693 94.010452,100.831238 
z"/>
<path fill="#0577C4" opacity="1.000000" stroke="none" 
	d="
M52.584911,72.094460 
	C54.150208,73.753906 55.109673,75.520767 56.463024,76.901596 
	C63.086143,83.659203 69.867912,90.261734 76.462959,97.046082 
	C77.899788,98.524147 78.801384,100.522514 79.974747,102.640625 
	C75.975456,103.000000 71.950912,103.000000 67.391327,102.653099 
	C63.191151,96.988052 59.444645,91.723648 55.885590,86.335434 
	C52.816757,81.689400 49.961365,76.902382 47.011608,72.177696 
	C48.727955,72.126442 50.444298,72.075188 52.584911,72.094460 
z"/>
<path fill="#0671B9" opacity="1.000000" stroke="none" 
	d="
M46.571602,72.105850 
	C49.961365,76.902382 52.816757,81.689400 55.885590,86.335434 
	C59.444645,91.723648 63.191151,96.988052 66.928146,102.653099 
	C64.299988,103.000000 61.599972,103.000000 58.449982,103.000000 
	C56.452579,101.902580 54.905163,100.805168 53.099422,99.044098 
	C51.680653,95.827530 50.661865,93.198082 49.331970,90.736725 
	C45.964912,84.505020 42.458160,78.348793 39.007355,72.162331 
	C41.382103,72.119560 43.756851,72.076790 46.571602,72.105850 
z"/>
<path fill="#048EEB" opacity="1.000000" stroke="none" 
	d="
M147.465729,6.902200 
	C149.923386,5.107762 152.842026,3.381234 155.880341,1.327353 
	C163.354248,1.000000 170.708496,1.000000 178.531372,0.999997 
	C179.405731,1.654896 179.664154,2.637743 180.246552,2.899328 
	C181.641800,3.526027 183.189407,3.813571 184.665939,4.849032 
	C183.091278,7.013240 181.526199,8.566422 179.961121,10.119600 
	C169.282974,9.069769 158.604843,8.019938 147.465729,6.902200 
z"/>
<path fill="#134B75" opacity="1.000000" stroke="none" 
	d="
M1.000001,67.250000 
	C5.429217,66.109497 9.858433,65.218987 14.652870,64.539871 
	C14.712510,65.763985 14.406929,66.776703 14.101348,67.789429 
	C10.043845,67.852913 5.986342,67.916397 1.464419,67.989944 
	C1.000000,68.000000 1.000000,67.500000 1.000001,67.250000 
z"/>
<path fill="#0197FB" opacity="1.000000" stroke="none" 
	d="
M126.097664,38.954464 
	C126.721443,43.996426 127.345222,49.038387 127.502045,54.502449 
	C118.413498,53.946873 109.791908,52.969196 101.170311,51.991524 
	C99.514137,49.226986 97.857964,46.462448 95.950760,43.191277 
	C95.504471,42.450211 95.279648,42.248775 95.025253,42.080341 
	C95.025253,42.080341 94.935318,42.088093 95.010147,41.657791 
	C95.892273,40.522209 96.687355,39.219692 97.508759,39.202869 
	C107.036095,39.007759 116.567406,39.006859 126.097664,38.954464 
z"/>
<path fill="#0196FA" opacity="1.000000" stroke="none" 
	d="
M126.055115,38.591988 
	C116.567406,39.006859 107.036095,39.007759 97.508759,39.202869 
	C96.687355,39.219692 95.892273,40.522209 95.004662,41.612984 
	C87.778015,39.547199 80.717010,38.576584 73.720551,42.651543 
	C72.695374,43.248638 71.125488,42.992069 69.807587,42.992542 
	C55.184372,42.997776 40.561146,42.975788 25.533054,42.529625 
	C26.121096,41.398090 27.056999,40.205975 28.116776,40.083206 
	C32.722279,39.549702 37.363884,39.327808 42.455292,38.994888 
	C45.909264,38.961437 48.908806,39.058849 51.889980,38.868557 
	C71.564949,37.612690 91.241150,36.366276 110.904030,34.938942 
	C114.978310,34.643196 118.998383,33.600601 123.043434,32.902210 
	C124.033150,34.677979 125.022865,36.453747 126.055115,38.591988 
z"/>
<path fill="#0481D5" opacity="1.000000" stroke="none" 
	d="
M94.309372,100.847672 
	C92.474083,98.642693 91.262718,96.099388 89.337326,94.335464 
	C84.530136,89.931404 79.398598,85.881386 74.215385,81.421066 
	C77.722626,80.763245 81.411713,80.373627 85.754776,80.183456 
	C93.305656,84.936966 100.202576,89.491043 107.099487,94.045113 
	C102.935753,96.318108 98.772018,98.591103 94.309372,100.847672 
z"/>
<path fill="#0486DD" opacity="1.000000" stroke="none" 
	d="
M107.445679,94.018723 
	C100.202576,89.491043 93.305656,84.936966 86.176559,80.133347 
	C88.373451,78.331314 90.802521,76.778831 93.898163,75.173859 
	C100.084282,77.768761 105.672630,80.286003 111.080795,83.144180 
	C112.669022,83.983543 113.746216,85.789902 115.057617,87.153076 
	C112.635696,89.432823 110.213776,91.712570 107.445679,94.018723 
z"/>
<path fill="#0293F4" opacity="1.000000" stroke="none" 
	d="
M101.098175,52.385536 
	C109.791908,52.969196 118.413498,53.946873 127.435242,54.958843 
	C127.548607,58.050064 127.261826,61.106987 126.478699,64.579987 
	C117.710899,63.328606 109.439453,61.661148 101.168015,59.993690 
	C101.120689,57.588978 101.073364,55.184261 101.098175,52.385536 
z"/>
<path fill="#038BE6" opacity="1.000000" stroke="none" 
	d="
M115.367195,87.002663 
	C113.746216,85.789902 112.669022,83.983543 111.080795,83.144180 
	C105.672630,80.286003 100.084282,77.768761 94.207916,75.034134 
	C95.323524,72.720451 96.795921,70.494003 98.948715,68.190918 
	C107.101212,71.113266 114.573311,74.112244 122.045410,77.111214 
	C119.922531,80.358223 117.799652,83.605240 115.367195,87.002663 
z"/>
<path fill="#028FED" opacity="1.000000" stroke="none" 
	d="
M122.365303,76.933044 
	C114.573311,74.112244 107.101212,71.113266 99.253334,68.035179 
	C99.587128,65.552971 100.296707,63.149864 101.087143,60.370224 
	C109.439453,61.661148 117.710899,63.328606 126.408226,64.994644 
	C125.451134,68.913773 124.068161,72.834320 122.365303,76.933044 
z"/>
<path fill="#0A6DB1" opacity="1.000000" stroke="none" 
	d="
M38.631279,72.094421 
	C42.458160,78.348793 45.964912,84.505020 49.331970,90.736725 
	C50.661865,93.198082 51.680653,95.827530 52.901569,98.741470 
	C49.876873,97.484360 46.121517,96.506447 43.841255,94.119400 
	C38.528690,88.558113 34.685776,81.996552 35.254402,73.265457 
	C35.656197,72.553017 35.825516,72.364677 35.974529,72.158096 
	C36.734753,72.114235 37.494980,72.070374 38.631279,72.094421 
z"/>
<path fill="#0387DF" opacity="1.000000" stroke="none" 
	d="
M36.865208,51.960999 
	C37.247810,50.863659 37.630413,49.766323 38.236992,48.196640 
	C38.655907,47.551495 38.826496,47.357311 38.972736,47.141735 
	C39.427570,47.097244 39.882404,47.052753 40.768505,47.410133 
	C42.176254,48.611263 43.032028,49.711838 44.149384,50.159466 
	C50.101372,52.543922 56.118839,54.764927 62.113647,57.042492 
	C62.071522,59.729259 62.029392,62.416031 61.564476,65.520325 
	C58.934963,64.843857 56.652206,63.878841 54.536030,62.631260 
	C48.608936,59.136963 42.750645,55.525959 36.865208,51.960999 
z"/>
<path fill="#057FD1" opacity="1.000000" stroke="none" 
	d="
M36.541725,52.177429 
	C42.750645,55.525959 48.608936,59.136963 54.536030,62.631260 
	C56.652206,63.878841 58.934963,64.843857 61.497196,65.963058 
	C61.050373,66.659073 60.276886,67.863876 59.440754,67.909042 
	C55.637016,68.114510 51.815651,67.993622 47.253754,68.006844 
	C46.316212,68.030952 46.125538,68.038338 45.934864,68.045723 
	C45.934864,68.045723 45.998913,68.016808 45.911484,67.696167 
	C44.865303,65.210396 43.906551,63.045261 42.947800,60.880131 
	C40.524036,60.431053 38.100273,59.981972 35.076302,59.421688 
	C35.439472,57.186630 35.828857,54.790249 36.541725,52.177429 
z"/>
<path fill="#028FED" opacity="1.000000" stroke="none" 
	d="
M62.425732,56.860989 
	C56.118839,54.764927 50.101372,52.543922 44.149384,50.159466 
	C43.032028,49.711838 42.176254,48.611263 41.105206,47.482967 
	C49.581921,47.153934 58.153206,47.153934 67.273033,47.153934 
	C65.605751,50.655804 64.171783,53.667645 62.425732,56.860989 
z"/>
<path fill="#057FD1" opacity="1.000000" stroke="none" 
	d="
M56.253136,18.045149 
	C56.523064,18.776127 56.730522,19.841352 56.431213,20.010654 
	C50.725952,23.237745 44.965015,26.366846 39.181534,29.452353 
	C39.058079,29.518215 38.532738,28.830778 38.076759,28.187336 
	C38.565041,26.471954 39.171440,25.063993 40.288868,23.247599 
	C42.872742,20.622917 44.945583,18.406672 47.018429,16.190426 
	C49.997200,16.781050 52.975971,17.371674 56.253136,18.045149 
z"/>
<path fill="#0B63A0" opacity="1.000000" stroke="none" 
	d="
M14.560633,67.842842 
	C14.406929,66.776703 14.712510,65.763985 15.035217,64.429756 
	C21.414534,63.406094 27.776726,62.703934 34.354340,62.286644 
	C34.392086,64.322952 34.214413,66.074379 34.036736,67.825813 
	C27.697796,67.849297 21.358856,67.872772 14.560633,67.842842 
z"/>
<path fill="#0290EE" opacity="1.000000" stroke="none" 
	d="
M41.992367,38.992668 
	C37.363884,39.327808 32.722279,39.549702 28.116776,40.083206 
	C27.056999,40.205975 26.121096,41.398090 25.069263,42.462868 
	C23.954760,43.186371 22.899178,43.545105 21.362131,43.591045 
	C20.988577,41.541183 21.096487,39.804115 21.204397,38.067047 
	C26.183903,37.381939 31.163408,36.696831 36.510460,35.979111 
	C37.063702,35.955853 37.249401,35.965206 37.713779,35.983147 
	C39.097069,35.674374 40.201679,35.357021 41.653675,35.273239 
	C42.001839,35.675095 42.002617,35.843376 42.002823,36.384377 
	C41.998959,37.502285 41.995663,38.247478 41.992367,38.992668 
z"/>
<path fill="#0675BF" opacity="1.000000" stroke="none" 
	d="
M34.476208,67.874573 
	C34.214413,66.074379 34.392086,64.322952 34.787514,62.357941 
	C37.377525,61.750252 39.749783,61.356140 42.534920,60.921082 
	C43.906551,63.045261 44.865303,65.210396 45.891006,67.724731 
	C42.277195,68.023735 38.596439,67.973534 34.476208,67.874573 
z"/>
<path fill="#0975BF" opacity="1.000000" stroke="none" 
	d="
M46.560646,16.112181 
	C44.945583,18.406672 42.872742,20.622917 40.480537,22.928122 
	C37.805271,21.158390 35.449368,19.299704 33.093464,17.441017 
	C33.387081,16.971989 33.680695,16.502962 33.974312,16.033936 
	C38.017162,16.033936 42.060017,16.033936 46.560646,16.112181 
z"/>
<path fill="#182B3C" opacity="1.000000" stroke="none" 
	d="
M20.802067,37.982315 
	C21.096487,39.804115 20.988577,41.541183 21.017841,43.600559 
	C17.079636,43.672218 13.004260,43.421513 8.928875,43.170948 
	C6.977881,43.050995 5.026872,42.931301 3.075869,42.811493 
	C3.128500,42.627182 3.181132,42.442875 3.233763,42.258564 
	C8.955754,40.804905 14.677746,39.351246 20.802067,37.982315 
z"/>
<path fill="#0671B9" opacity="1.000000" stroke="none" 
	d="
M35.733959,72.149681 
	C35.825516,72.364677 35.656197,72.553017 35.318199,72.842079 
	C35.037605,72.593048 35.145458,72.319786 35.733959,72.149681 
z"/>
<path fill="#028FED" opacity="1.000000" stroke="none" 
	d="
M38.719315,47.119560 
	C38.826496,47.357311 38.655907,47.551495 38.307526,47.843311 
	C38.258015,47.674019 38.361954,47.385704 38.719315,47.119560 
z"/>
<path fill="#0196FA" opacity="1.000000" stroke="none" 
	d="
M95.099884,42.308735 
	C95.279648,42.248775 95.504471,42.450211 95.832504,42.868748 
	C95.634750,42.983566 95.371162,42.811657 95.099884,42.308735 
z"/>
<path fill="#0675BF" opacity="1.000000" stroke="none" 
	d="
M46.018143,68.283661 
	C46.125538,68.038338 46.316212,68.030952 46.793118,68.029053 
	C46.753372,68.196892 46.427395,68.359245 46.018143,68.283661 
z"/>
<path fill="#0099FE" opacity="1.000000" stroke="none" 
	d="
M185.171265,50.997265 
	C180.555588,44.115028 171.573792,41.829262 160.970581,49.892254 
	C153.561554,49.658157 146.915222,49.494431 140.323517,48.807064 
	C138.198715,48.585495 136.217590,46.985889 134.170746,46.016689 
	C134.116608,45.272377 134.062469,44.528065 134.177917,43.188644 
	C134.544418,42.045708 134.741333,41.497887 134.938248,40.950066 
	C134.938248,40.950066 134.995865,40.988304 135.432404,40.977886 
	C144.452728,40.777641 153.035812,40.537289 161.620560,40.415096 
	C167.716370,40.328327 173.815155,40.341518 179.911301,40.416882 
	C188.313690,40.520752 196.717209,40.653118 205.115067,40.930061 
	C207.685379,41.014824 210.238693,41.614647 212.799789,41.978600 
	C212.848465,45.362453 212.897156,48.746304 212.718811,52.736660 
	C212.310211,53.559978 212.163223,53.798122 212.050812,54.057602 
	C212.050812,54.057602 212.003052,54.009026 211.572144,54.021049 
	C202.484573,53.021137 193.827927,52.009201 185.171265,50.997265 
z"/>
<path fill="#0195F8" opacity="1.000000" stroke="none" 
	d="
M135.178528,37.003178 
	C135.461914,35.260956 135.745285,33.518738 136.551086,31.390310 
	C140.158432,30.741755 143.238983,30.351357 146.329254,30.245846 
	C151.493713,30.069517 156.664352,30.075220 162.034515,30.308762 
	C162.496002,30.052124 162.755386,29.491026 162.962616,28.962395 
	C162.910477,28.994865 162.826553,29.084568 162.826553,29.084568 
	C165.956039,27.848915 169.123291,26.700340 172.208344,25.362221 
	C184.257965,20.135733 200.761703,21.603558 208.338638,30.923332 
	C208.633179,31.285635 208.770355,31.775877 208.665955,32.786781 
	C199.631577,33.911282 190.918900,34.642876 182.191177,34.956814 
	C168.310074,35.456120 154.418060,35.646076 140.533188,36.053398 
	C138.740555,36.105980 136.963058,36.673946 135.178528,37.003178 
z"/>
<path fill="#0389E4" opacity="1.000000" stroke="none" 
	d="
M151.850739,88.971703 
	C151.554916,92.208824 151.480576,95.491615 150.828384,98.655266 
	C150.632538,99.605255 148.842361,100.863838 147.755585,100.890747 
	C139.988403,101.083054 132.214249,100.993423 123.813293,100.993423 
	C125.267792,93.968239 126.632507,87.376755 128.470322,80.399788 
	C136.579208,83.000099 144.214966,85.985901 151.850739,88.971703 
z"/>
<path fill="#0197FB" opacity="1.000000" stroke="none" 
	d="
M135.102905,37.391281 
	C136.963058,36.673946 138.740555,36.105980 140.533188,36.053398 
	C154.418060,35.646076 168.310074,35.456120 182.191177,34.956814 
	C190.918900,34.642876 199.631577,33.911282 208.698715,33.135090 
	C210.340179,35.679127 211.633942,38.455135 212.863739,41.604874 
	C210.238693,41.614647 207.685379,41.014824 205.115067,40.930061 
	C196.717209,40.653118 188.313690,40.520752 179.911301,40.416882 
	C173.815155,40.341518 167.716370,40.328327 161.620560,40.415096 
	C153.035812,40.537289 144.452728,40.777641 135.407928,40.952732 
	C134.973694,39.885124 135.000473,38.832256 135.102905,37.391281 
z"/>
<path fill="#028FED" opacity="1.000000" stroke="none" 
	d="
M151.929489,88.576431 
	C144.214966,85.985901 136.579208,83.000099 128.555634,80.003609 
	C128.885101,75.054924 129.602386,70.116943 130.781158,65.366791 
	C139.105927,67.367470 146.969193,69.180321 154.832458,70.993172 
	C153.891052,76.722504 152.949646,82.451836 151.929489,88.576431 
z"/>
<path fill="#0194F5" opacity="1.000000" stroke="none" 
	d="
M42.455292,38.994888 
	C41.995663,38.247478 41.998959,37.502285 42.335300,36.382393 
	C43.111721,36.007362 43.555099,36.007038 44.323944,36.215500 
	C46.111328,36.526211 47.607433,36.882149 49.029865,36.690701 
	C62.982014,34.812881 76.945000,32.993656 90.856865,30.846458 
	C99.651428,29.489079 108.364487,27.603573 117.114098,25.954945 
	C119.063881,28.038496 121.013672,30.122046 123.003448,32.553902 
	C118.998383,33.600601 114.978310,34.643196 110.904030,34.938942 
	C91.241150,36.366276 71.564949,37.612690 51.889980,38.868557 
	C48.908806,39.058849 45.909264,38.961437 42.455292,38.994888 
z"/>
<path fill="#038EEB" opacity="1.000000" stroke="none" 
	d="
M206.106247,89.036583 
	C205.657700,92.777336 205.209152,96.518089 204.715302,100.636681 
	C196.001678,100.636681 187.130920,100.636681 178.014984,100.636681 
	C179.031998,95.285515 180.026520,90.052620 181.479965,84.441078 
	C189.994659,85.720482 198.050461,87.378532 206.106247,89.036583 
z"/>
<path fill="#0291F1" opacity="1.000000" stroke="none" 
	d="
M206.445740,88.812607 
	C198.050461,87.378532 189.994659,85.720482 181.554321,84.028519 
	C181.169785,83.994606 181.023758,83.562096 180.995941,83.039413 
	C180.959091,82.318962 180.950058,82.121193 180.941025,81.923431 
	C180.941025,81.923431 180.975342,81.983322 181.143524,81.823837 
	C181.525040,81.406235 181.738388,81.148125 181.951736,80.890015 
	C182.388580,77.040726 182.825424,73.191429 183.761353,69.456177 
	C192.450272,71.377945 200.640091,73.185669 208.829926,74.993401 
	C208.148376,79.525146 207.466812,84.056892 206.445740,88.812607 
z"/>
<path fill="#0293F4" opacity="1.000000" stroke="none" 
	d="
M155.002808,70.631004 
	C146.969193,69.180321 139.105927,67.367470 131.098846,65.221252 
	C131.384888,60.709236 131.814743,56.530590 132.649628,52.511127 
	C134.326233,53.737926 135.492401,55.550060 136.887100,55.747414 
	C143.828064,56.729610 150.829147,57.286873 157.809082,57.993729 
	C156.930435,62.085434 156.051804,66.177139 155.002808,70.631004 
z"/>
<path fill="#0290EE" opacity="1.000000" stroke="none" 
	d="
M116.963959,25.632040 
	C108.364487,27.603573 99.651428,29.489079 90.856865,30.846458 
	C76.945000,32.993656 62.982014,34.812881 49.029865,36.690701 
	C47.607433,36.882149 46.111328,36.526211 44.324684,35.881741 
	C44.000729,34.894432 44.001495,34.449665 44.002258,34.004902 
	C44.446293,34.004059 44.890324,34.003216 45.958488,34.192410 
	C47.390118,34.417217 48.234501,34.624542 48.999615,34.461006 
	C61.497635,31.789700 74.010612,29.180326 86.466049,26.321005 
	C93.376595,24.734589 100.187248,22.713043 107.042931,20.887623 
	C110.299889,22.361460 113.556854,23.835297 116.963959,25.632040 
z"/>
<path fill="#0295F7" opacity="1.000000" stroke="none" 
	d="
M208.902008,74.582718 
	C200.640091,73.185669 192.450272,71.377945 184.107422,69.233673 
	C184.309708,66.161064 184.665009,63.425007 185.535522,60.343689 
	C194.310043,60.664486 202.569336,61.330547 210.828613,61.996609 
	C210.210434,66.055084 209.592255,70.113556 208.902008,74.582718 
z"/>
<path fill="#0594F5" opacity="1.000000" stroke="none" 
	d="
M206.053406,12.904959 
	C213.700012,16.606670 221.240051,20.558996 229.048904,23.879078 
	C231.922714,25.100929 235.431305,24.829771 238.876602,25.596251 
	C238.219360,26.518272 237.335861,27.083656 236.215088,27.866365 
	C229.462570,27.726339 222.943390,27.425173 216.435242,26.967041 
	C215.033722,26.868385 213.564331,26.411688 212.310654,25.763290 
	C206.722397,22.873087 201.201050,19.853527 195.834717,16.564455 
	C198.126923,16.594687 200.239792,16.941908 202.352951,17.287497 
	C206.027634,17.888462 207.487778,16.618444 206.053406,12.904959 
z"/>
<path fill="#0297FB" opacity="1.000000" stroke="none" 
	d="
M210.909088,61.598583 
	C202.569336,61.330547 194.310043,60.664486 185.608490,59.997795 
	C185.121262,57.259785 185.076309,54.522408 185.101318,51.391151 
	C193.827927,52.009201 202.484573,53.021137 211.596634,54.048294 
	C211.697861,56.442524 211.343704,58.821541 210.909088,61.598583 
z"/>
<path fill="#0197FB" opacity="1.000000" stroke="none" 
	d="
M157.889175,57.623367 
	C150.829147,57.286873 143.828064,56.729610 136.887100,55.747414 
	C135.492401,55.550060 134.326233,53.737926 132.998383,52.290527 
	C133.235504,50.176361 133.528946,48.441982 133.996582,46.362144 
	C136.217590,46.985889 138.198715,48.585495 140.323517,48.807064 
	C146.915222,49.494431 153.561554,49.658157 160.650421,50.033867 
	C160.065887,52.446098 159.017593,54.849556 157.889175,57.623367 
z"/>
<path fill="#028EEC" opacity="1.000000" stroke="none" 
	d="
M106.855209,20.564638 
	C100.187248,22.713043 93.376595,24.734589 86.466049,26.321005 
	C74.010612,29.180326 61.497635,31.789700 48.999615,34.461006 
	C48.234501,34.624542 47.390118,34.417217 46.291512,34.191952 
	C59.832855,30.037340 73.696007,26.175564 87.477493,22.041542 
	C91.207291,20.922716 94.689964,18.980049 98.561951,17.223339 
	C101.447723,18.101326 104.057610,19.171492 106.855209,20.564638 
z"/>
<path fill="#0391F0" opacity="1.000000" stroke="none" 
	d="
M205.878586,12.582882 
	C207.487778,16.618444 206.027634,17.888462 202.352951,17.287497 
	C200.239792,16.941908 198.126923,16.594687 195.572830,16.287518 
	C190.204391,14.473011 185.277023,12.619186 180.155396,10.442482 
	C181.526199,8.566422 183.091278,7.013240 184.851944,5.176071 
	C191.932938,7.348323 198.818359,9.804564 205.878586,12.582882 
z"/>
<path fill="#0294F5" opacity="1.000000" stroke="none" 
	d="
M161.832397,30.004299 
	C156.664352,30.075220 151.493713,30.069517 146.329254,30.245846 
	C143.238983,30.351357 140.158432,30.741755 136.632721,31.005127 
	C136.608505,28.804350 137.025070,26.602547 137.479935,24.198305 
	C145.787827,24.198305 154.169724,24.198305 162.968796,24.198305 
	C162.968796,25.659254 162.968796,26.928558 162.897675,28.641216 
	C162.826553,29.084568 162.910477,28.994865 162.687851,29.038052 
	C162.254288,29.388924 162.043350,29.696611 161.832397,30.004299 
z"/>
<path fill="#0197FB" opacity="1.000000" stroke="none" 
	d="
M134.679504,41.043011 
	C134.741333,41.497887 134.544418,42.045708 134.153015,42.814964 
	C134.112625,42.402916 134.266693,41.769436 134.679504,41.043011 
z"/>
<path fill="#0297FB" opacity="1.000000" stroke="none" 
	d="
M212.286743,53.978554 
	C212.163223,53.798122 212.310211,53.559978 212.637482,53.191750 
	C212.968765,53.409283 212.881912,53.695671 212.286743,53.978554 
z"/>
<path fill="#038EEB" opacity="1.000000" stroke="none" 
	d="
M181.702072,80.984772 
	C181.738388,81.148125 181.525040,81.406235 181.109772,81.816574 
	C181.089371,81.672379 181.270889,81.375954 181.702072,80.984772 
z"/>
<path fill="#038EEB" opacity="1.000000" stroke="none" 
	d="
M180.693329,82.008438 
	C180.950058,82.121193 180.959091,82.318962 180.962372,82.813637 
	C180.786301,82.771515 180.615967,82.432472 180.693329,82.008438 
z"/>
<path fill="#000000" opacity="1.000000" stroke="none" 
	d="
M263.429688,40.012344 
	C266.395905,41.069828 269.289612,41.679489 271.436279,43.286854 
	C273.635193,44.933342 275.241577,47.470730 276.719330,49.858307 
	C276.910095,50.166527 274.798767,52.825478 273.717377,52.851017 
	C263.582275,53.090420 253.439240,52.993050 243.259979,52.993050 
	C244.119461,46.232372 253.174683,40.421642 263.429688,40.012344 
z"/>
<path fill="#0292F2" opacity="1.000000" stroke="none" 
	d="
M239.868866,69.052719 
	C240.019714,69.524071 239.996307,69.947830 239.899658,70.681412 
	C239.782486,70.329201 239.738541,69.667168 239.868866,69.052719 
z"/>
<path fill="#0594F5" opacity="1.000000" stroke="none" 
	d="
M247.285156,26.344316 
	C247.927322,26.225491 248.845886,26.276457 249.929596,26.639130 
	C249.250336,26.805260 248.405960,26.659683 247.285156,26.344316 
z"/>
<path fill="#028EEC" opacity="1.000000" stroke="none" 
	d="
M43.723694,34.066330 
	C44.001495,34.449665 44.000729,34.894432 43.999218,35.672955 
	C43.555099,36.007038 43.111721,36.007362 42.335869,36.009674 
	C42.002617,35.843376 42.001839,35.675095 42.000381,35.254406 
	C42.481514,34.710587 42.963322,34.419170 43.723694,34.066330 
z"/>
<path fill="#000000" opacity="1.000000" stroke="none" 
	d="
M162.034515,30.308762 
	C162.043350,29.696611 162.254288,29.388924 162.739990,29.005581 
	C162.755386,29.491026 162.496002,30.052124 162.034515,30.308762 
z"/>
</svg>